<svg xmlns="http://www.w3.org/2000/svg" xmlns:xlink="http://www.w3.org/1999/xlink" width="364.95" height="52.865" viewBox="0 0 364.95 52.865"><defs><style>.a{fill:none;}.b{clip-path:url(#a);}.c{fill:#fff;}.d{clip-path:url(#b);}</style><clipPath id="a"><path class="a" d="M0,0H29.922V29.983H0Z"/></clipPath><clipPath id="b"><path class="a" d="M0,52.865H364.95V0H0Z"/></clipPath></defs><g transform="translate(0 11.532)"><path class="a" d="M0,0H29.922V29.983H0Z" transform="translate(0 0)"/><g class="b" transform="translate(0 0)"><path class="c" d="M22.7,13.838a7.593,7.593,0,0,0-7.829-7.1,7.987,7.987,0,0,0-7.83,8.133c0,4.916,3.4,8.436,9.226,8.436H27.313a14.588,14.588,0,0,1-12.382,6.676A14.991,14.991,0,1,1,29.923,14.991a16.74,16.74,0,0,1-.728,4.674H12.5V18.026l5.887-.182c2.974-.121,4.309-1.639,4.309-4.006" transform="translate(0)"/></g></g><path class="c" d="M14.445,8.376,20.151,0h7.89L18.33,13.534l10.5,14.628H20.454l-6.252-9.1-6.312,9.1H0L10.318,13.9.3,0H8.679Z" transform="translate(27.918 12.442)"/><path class="c" d="M7.284,40.543H0V.79H7.284V6.251c0,.129.052.216.129.216.062,0,.125-.057.174-.155A10.333,10.333,0,0,1,17.116,0,12.264,12.264,0,0,1,26.16,4.021a14.182,14.182,0,0,1,2.872,4.685A17.412,17.412,0,0,1,30.1,14.87a17.412,17.412,0,0,1-1.073,6.164A14.182,14.182,0,0,1,26.16,25.72a12.264,12.264,0,0,1-9.044,4.021,10.333,10.333,0,0,1-9.529-6.312c-.049-.1-.113-.155-.174-.155-.077,0-.129.086-.129.215V40.542ZM15.113,6.009A7.655,7.655,0,0,0,9.567,8.5a9.265,9.265,0,0,0-2.4,6.366,9.265,9.265,0,0,0,2.4,6.366,7.655,7.655,0,0,0,5.546,2.5,7.553,7.553,0,0,0,5.568-2.5,9.289,9.289,0,0,0,2.382-6.366A9.289,9.289,0,0,0,20.681,8.5,7.553,7.553,0,0,0,15.113,6.009Z" transform="translate(57.839 11.653)"/><path class="c" d="M22.7,13.838a7.593,7.593,0,0,0-7.829-7.1A7.987,7.987,0,0,0,7.04,14.87c0,4.916,3.4,8.436,9.226,8.436H27.312a14.587,14.587,0,0,1-12.382,6.676A14.991,14.991,0,1,1,29.922,14.991a16.74,16.74,0,0,1-.728,4.674H12.5V18.026l5.888-.182c2.974-.121,4.309-1.639,4.309-4.006" transform="translate(90.308 11.532)"/><path class="c" d="M12.989,41.151A12.263,12.263,0,0,1,3.945,37.13a14.183,14.183,0,0,1-2.872-4.685A17.41,17.41,0,0,1,0,26.281a17.412,17.412,0,0,1,1.073-6.164,14.182,14.182,0,0,1,2.872-4.685,12.264,12.264,0,0,1,9.044-4.021,10.333,10.333,0,0,1,9.529,6.312c.049.1.113.154.174.154.077,0,.129-.086.129-.215V0H30.1V40.361H22.821V34.9c0-.129-.052-.215-.129-.215-.062,0-.125.056-.174.154A10.332,10.332,0,0,1,12.989,41.151Zm2-23.732a7.553,7.553,0,0,0-5.568,2.5,9.289,9.289,0,0,0-2.382,6.366,9.287,9.287,0,0,0,2.382,6.365,7.553,7.553,0,0,0,5.568,2.5,7.656,7.656,0,0,0,5.546-2.5,9.262,9.262,0,0,0,2.4-6.365,9.264,9.264,0,0,0-2.4-6.366A7.656,7.656,0,0,0,14.992,17.419Z" transform="translate(122.595 0.243)"/><path class="a" d="M0,52.865H364.95V0H0Z"/><g class="d"><path class="c" d="M7.89,40.6H.607V12.442H7.89V40.6ZM4.25,8.5A4.306,4.306,0,0,1,0,4.248,4.306,4.306,0,0,1,4.25,0,4.305,4.305,0,0,1,8.5,4.248,4.305,4.305,0,0,1,4.25,8.5Z" transform="translate(157.31 0)"/><path class="c" d="M12.989,29.741A12.264,12.264,0,0,1,3.945,25.72a14.182,14.182,0,0,1-2.872-4.685A17.412,17.412,0,0,1,0,14.87,17.412,17.412,0,0,1,1.073,8.706,14.182,14.182,0,0,1,3.945,4.021,12.264,12.264,0,0,1,12.989,0a10.333,10.333,0,0,1,9.529,6.312c.049.1.113.155.174.155.077,0,.129-.087.129-.216V.789H30.1V28.951H22.821V23.488c0-.129-.052-.215-.129-.215-.062,0-.125.057-.174.155A10.333,10.333,0,0,1,12.989,29.741Zm2-23.732A7.553,7.553,0,0,0,9.423,8.5,9.289,9.289,0,0,0,7.041,14.87a9.287,9.287,0,0,0,2.382,6.365,7.553,7.553,0,0,0,5.568,2.5,7.656,7.656,0,0,0,5.546-2.5,9.262,9.262,0,0,0,2.4-6.365,9.264,9.264,0,0,0-2.4-6.366A7.656,7.656,0,0,0,14.992,6.009Z" transform="translate(168.841 11.653)"/><path class="c" d="M15.113,41.212a20.29,20.29,0,0,1-7.261-1.3A17.978,17.978,0,0,1,2,36.3l4.37-4.734c2.817,2.23,5.13,3.52,8.619,3.52a7.035,7.035,0,0,0,5.8-2.466,9.409,9.409,0,0,0,1.79-5.971v-3.4c0-.129-.052-.215-.129-.215-.062,0-.125.056-.174.154A10.249,10.249,0,0,1,12.867,29.5a12.145,12.145,0,0,1-8.96-3.984,14.051,14.051,0,0,1-2.844-4.646A17.313,17.313,0,0,1,0,14.749a17.315,17.315,0,0,1,1.063-6.12A14.049,14.049,0,0,1,3.907,3.983,12.145,12.145,0,0,1,12.867,0a10.25,10.25,0,0,1,9.408,6.312c.049.1.113.155.174.155.077,0,.129-.087.129-.216V.789h7.282V27.312A13.731,13.731,0,0,1,25.992,37.2C23.343,39.824,19.581,41.212,15.113,41.212Zm-.243-35.2A7.434,7.434,0,0,0,9.385,8.467a9.173,9.173,0,0,0-2.344,6.282,9.171,9.171,0,0,0,2.344,6.282,7.435,7.435,0,0,0,5.486,2.458,7.536,7.536,0,0,0,5.462-2.458A9.145,9.145,0,0,0,22.7,14.749a9.147,9.147,0,0,0-2.367-6.282A7.535,7.535,0,0,0,14.87,6.009Z" transform="translate(212.599 11.653)"/><path class="c" d="M7.283.789V6.92c0,.121.122.182.182,0C8.437,1.882,10.622,0,14.384,0h.668V7.648H11.775c-2.974,0-4.492,2.306-4.492,5.584v15.72H0V.789Z" transform="translate(247.679 11.653)"/><path class="c" d="M15.052,29.983A14.992,14.992,0,1,1,15.052,0,14.8,14.8,0,0,1,25.59,4.4a14.964,14.964,0,0,1,0,21.183A14.8,14.8,0,0,1,15.052,29.983ZM14.992,6.616A7.724,7.724,0,0,0,9.378,9.028a8.546,8.546,0,0,0-2.337,5.963,8.546,8.546,0,0,0,2.337,5.963,7.738,7.738,0,0,0,11.228,0,8.546,8.546,0,0,0,2.337-5.963,8.546,8.546,0,0,0-2.337-5.963A7.724,7.724,0,0,0,14.992,6.616Z" transform="translate(263.155 11.532)"/><path class="c" d="M11.653,29.072C4.552,29.072,0,24.763,0,18.451V0H7.283V17.9a4.317,4.317,0,0,0,4.552,4.613,4.323,4.323,0,0,0,4.37-4.552V0h7.283V18.451c0,6.312-4.916,10.622-11.836,10.622" transform="translate(296.596 12.442)"/><path class="c" d="M7.284,40.543H0V.79H7.284V6.251c0,.129.052.216.129.216.062,0,.125-.057.174-.155A10.333,10.333,0,0,1,17.116,0,12.264,12.264,0,0,1,26.16,4.021a14.182,14.182,0,0,1,2.872,4.685A17.412,17.412,0,0,1,30.1,14.87a17.412,17.412,0,0,1-1.073,6.164A14.182,14.182,0,0,1,26.16,25.72a12.264,12.264,0,0,1-9.044,4.021,10.333,10.333,0,0,1-9.529-6.312c-.049-.1-.113-.155-.174-.155-.077,0-.129.086-.129.215V40.542ZM15.113,6.009A7.656,7.656,0,0,0,9.567,8.5a9.264,9.264,0,0,0-2.4,6.366,9.264,9.264,0,0,0,2.4,6.366,7.656,7.656,0,0,0,5.546,2.5,7.553,7.553,0,0,0,5.568-2.5,9.289,9.289,0,0,0,2.382-6.366A9.289,9.289,0,0,0,20.681,8.5,7.553,7.553,0,0,0,15.113,6.009Z" transform="translate(325.121 11.653)"/><path class="c" d="M3.413,0V.746H2.152V4.214H1.266V.746H0V0Z" transform="translate(356.961 12.541)"/><path class="c" d="M2.81,0H4.077V4.214h-.82V1.363q0-.123,0-.344c0-.148,0-.262,0-.342l-.8,3.536H1.608L.815.677c0,.08,0,.194,0,.342s0,.262,0,.344v2.85H0V0H1.282l.767,3.313Z" transform="translate(360.874 12.541)"/></g></svg>